<svg width="512" height="512" viewBox="0 0 512 512" fill="none" xmlns="http://www.w3.org/2000/svg">
<path d="M482 30H30V482H482V30Z" fill="#222222"/>
<path d="M426.384 248.398L404.96 317.799H382.209L414.495 229.932H428.919L426.384 248.398ZM444.127 317.799L422.642 248.398L419.866 229.932H434.471L466.938 317.799H444.127ZM443.282 285.03V301.384H398.201V285.03H443.282Z" fill="white"/>
<path d="M374.663 229.932V317.799H353.541L322.462 263.123V317.799H301.279V229.932H322.462L353.541 284.607V229.932H374.663Z" fill="white"/>
<path d="M255.838 287.987H233.992V271.632H255.838C258.815 271.632 261.229 271.13 263.08 270.124C264.93 269.118 266.278 267.73 267.123 265.96C268.008 264.149 268.451 262.118 268.451 259.865C268.451 257.451 268.008 255.218 267.123 253.166C266.278 251.114 264.93 249.464 263.08 248.217C261.229 246.93 258.815 246.286 255.838 246.286H241.958V317.799H220.775V229.932H255.838C262.879 229.932 268.934 231.219 274.003 233.794C279.112 236.369 283.035 239.909 285.771 244.415C288.507 248.881 289.874 253.991 289.874 259.744C289.874 265.417 288.507 270.365 285.771 274.59C283.035 278.814 279.112 282.113 274.003 284.487C268.934 286.82 262.879 287.987 255.838 287.987Z" fill="white"/>
<path d="M189.635 288.049H210.757C210.476 294.164 208.826 299.555 205.809 304.222C202.791 308.889 198.607 312.53 193.256 315.145C187.945 317.72 181.669 319.008 174.427 319.008C168.553 319.008 163.303 318.022 158.676 316.051C154.09 314.079 150.187 311.243 146.969 307.542C143.79 303.84 141.356 299.354 139.667 294.084C138.017 288.813 137.192 282.879 137.192 276.281V271.513C137.192 264.915 138.057 258.981 139.787 253.711C141.558 248.4 144.052 243.894 147.271 240.193C150.529 236.451 154.432 233.594 158.978 231.623C163.524 229.652 168.574 228.666 174.126 228.666C181.77 228.666 188.227 230.034 193.498 232.77C198.768 235.506 202.852 239.267 205.748 244.055C208.645 248.802 210.355 254.214 210.878 260.289H189.756C189.675 256.99 189.112 254.234 188.066 252.021C187.02 249.768 185.371 248.078 183.118 246.952C180.865 245.825 177.867 245.262 174.126 245.262C171.511 245.262 169.237 245.745 167.306 246.71C165.375 247.676 163.766 249.205 162.478 251.297C161.191 253.389 160.225 256.104 159.582 259.444C158.978 262.743 158.676 266.726 158.676 271.393V276.281C158.676 280.948 158.958 284.931 159.521 288.23C160.085 291.529 160.99 294.225 162.237 296.317C163.484 298.409 165.094 299.958 167.065 300.964C169.077 301.929 171.531 302.412 174.427 302.412C177.646 302.412 180.362 301.909 182.574 300.903C184.787 299.857 186.497 298.288 187.704 296.196C188.911 294.064 189.555 291.348 189.635 288.049Z" fill="white"/>
<path d="M107.562 294.448C107.562 293.08 107.36 291.853 106.958 290.767C106.556 289.64 105.812 288.594 104.725 287.629C103.639 286.663 102.07 285.698 100.018 284.732C98.0064 283.726 95.3511 282.68 92.0521 281.594C88.1898 280.306 84.4683 278.858 80.8876 277.249C77.3069 275.599 74.1084 273.688 71.2922 271.516C68.4759 269.303 66.243 266.728 64.5935 263.791C62.944 260.814 62.1192 257.354 62.1192 253.411C62.1192 249.629 62.9641 246.23 64.6538 243.212C66.3436 240.155 68.6972 237.56 71.7146 235.427C74.7723 233.255 78.353 231.605 82.4566 230.479C86.5603 229.312 91.0463 228.729 95.9144 228.729C102.352 228.729 108.024 229.855 112.933 232.108C117.881 234.321 121.744 237.479 124.52 241.583C127.336 245.646 128.744 250.454 128.744 256.006H107.682C107.682 253.793 107.22 251.842 106.294 250.152C105.409 248.462 104.061 247.135 102.251 246.169C100.441 245.204 98.1674 244.721 95.4316 244.721C92.7762 244.721 90.5434 245.123 88.7329 245.928C86.9224 246.732 85.5545 247.819 84.6292 249.187C83.7039 250.514 83.2412 251.983 83.2412 253.592C83.2412 254.92 83.6033 256.127 84.3275 257.213C85.0919 258.259 86.158 259.245 87.5259 260.17C88.9341 261.095 90.6238 261.981 92.5952 262.825C94.6068 263.67 96.8598 264.495 99.3542 265.3C104.021 266.788 108.165 268.458 111.786 270.309C115.447 272.119 118.525 274.191 121.019 276.525C123.554 278.818 125.465 281.433 126.752 284.37C128.08 287.307 128.744 290.626 128.744 294.327C128.744 298.27 127.98 301.77 126.451 304.828C124.922 307.886 122.729 310.481 119.873 312.613C117.016 314.705 113.596 316.294 109.613 317.38C105.63 318.467 101.185 319.01 96.2765 319.01C91.7704 319.01 87.3248 318.447 82.9394 317.32C78.5943 316.153 74.6516 314.383 71.1111 312.009C67.5707 309.596 64.7343 306.518 62.602 302.776C60.5099 298.994 59.4639 294.508 59.4639 289.318H80.7065C80.7065 291.893 81.0485 294.066 81.7325 295.836C82.4164 297.606 83.4222 299.035 84.7499 300.121C86.0776 301.167 87.707 301.931 89.6381 302.414C91.5693 302.857 93.7821 303.078 96.2765 303.078C98.972 303.078 101.145 302.696 102.794 301.931C104.444 301.127 105.651 300.081 106.415 298.793C107.179 297.465 107.562 296.017 107.562 294.448Z" fill="white"/>
</svg>
