<svg width="512" height="512" viewBox="0 0 512 512" fill="none" xmlns="http://www.w3.org/2000/svg">
<path d="M21.813 252.797V274.523C21.813 276.86 22.3324 278.418 23.2845 279.111C24.756 280.236 27.4394 280.842 31.248 280.842C36.7878 280.842 41.8948 279.63 46.6556 277.293C48.4734 276.341 49.8583 275.908 50.897 275.908C52.282 275.908 53.5804 276.427 54.6191 277.466C55.6578 278.505 56.1772 279.803 56.1772 281.361C56.1772 282.746 55.5712 283.958 54.446 284.997C52.7148 286.641 49.339 288.2 44.2319 289.584C39.1249 290.969 34.797 291.662 31.3346 291.662C24.5829 291.662 19.5625 290.19 16.1866 287.247C12.8108 284.304 11.1662 280.755 11.1662 276.514V252.797H7.271C4.67422 252.797 2.76991 252.277 1.64463 251.325C0.519357 250.373 0 248.988 0 247.343C0 245.785 0.519357 244.487 1.64463 243.448C2.76991 242.409 4.58766 241.977 7.271 241.977H11.1662V232.109C11.1662 229.512 11.6855 227.608 12.6377 226.483C13.6764 225.357 14.9748 224.838 16.6194 224.838C18.1775 224.838 19.4759 225.357 20.5146 226.483C21.5533 227.608 21.9861 229.426 21.9861 232.109V241.89H42.068C44.6647 241.89 46.5691 242.409 47.6943 243.362C48.8196 244.314 49.339 245.699 49.339 247.343C49.339 248.901 48.8196 250.2 47.6943 251.239C46.5691 252.277 44.7513 252.71 42.068 252.71H21.813V252.797Z" fill="black"/>
<path d="M105.084 253.749C108.286 255.913 110.71 258.51 112.268 261.366C113.826 264.223 114.692 267.512 114.692 271.061C114.692 274.869 113.653 278.505 111.576 281.708C109.498 284.997 106.469 287.42 102.4 289.152C98.4186 290.796 93.1384 291.662 86.733 291.662C78.3367 291.662 72.0179 290.364 67.7765 287.767C65.4394 286.295 64.2275 284.477 64.2275 282.487C64.2275 280.929 64.7469 279.63 65.7856 278.505C66.8243 277.466 68.1227 276.86 69.5942 276.86C70.633 276.86 71.6717 277.206 72.7969 277.899C74.355 278.938 75.8265 279.63 77.2115 279.976C79.2889 280.496 82.2319 280.755 85.954 280.755C92.2728 280.755 96.8605 279.976 99.717 278.332C102.573 276.687 103.958 274.35 103.958 271.407C103.958 269.156 103.179 266.992 101.535 265.002C99.8901 262.924 97.7261 261.366 94.9562 260.241C93.3981 259.635 90.7148 259.202 86.9062 258.942C85.0884 258.856 83.7034 258.25 82.7513 257.298C81.7991 256.259 81.2798 255.047 81.2798 253.576C81.2798 252.018 81.7991 250.719 82.8378 249.681C83.8766 248.642 85.2615 248.122 86.9062 248.122C90.5417 248.122 92.446 248.122 92.7056 248.036C94.0906 247.863 95.5621 247.43 96.9471 246.651C98.332 245.872 99.4573 244.833 100.323 243.448C101.188 242.063 101.621 240.678 101.621 239.207C101.621 236.87 100.583 234.965 98.5917 233.234C96.6008 231.59 93.4847 230.724 89.4164 230.724C84.2228 230.724 80.1545 232.282 77.4712 235.312C76.6921 236.177 75.9996 236.783 75.4803 237.043C74.7012 237.389 73.9222 237.649 72.9701 237.649C71.4985 237.649 70.2002 237.129 69.1614 236.091C68.1227 235.052 67.6034 233.754 67.6034 232.195C67.6034 229.772 69.248 227.435 72.4507 225.098C77.2115 221.722 83.0975 220.077 90.1954 220.077C96.9471 220.077 102.314 221.981 106.382 225.79C110.45 229.599 112.441 234.186 112.441 239.553C112.441 242.323 111.835 244.92 110.623 247.343C109.239 249.421 107.507 251.671 105.084 253.749Z" fill="black"/>
<path d="M171.648 243.881C172.947 242.669 174.332 242.063 175.717 242.063C177.275 242.063 178.573 242.582 179.525 243.708C180.477 244.833 180.997 246.651 180.997 249.247V256.259C180.997 258.856 180.477 260.76 179.525 261.799C178.486 262.924 177.188 263.443 175.543 263.443C174.072 263.443 172.773 263.01 171.821 262.145C171.042 261.539 170.523 260.24 170.09 258.25C169.657 256.259 168.619 254.874 166.974 253.835C164.118 252.104 160.482 251.325 155.981 251.325C150.874 251.325 146.719 252.796 143.689 255.826C140.573 258.856 139.015 262.664 139.015 267.252C139.015 271.493 140.487 274.869 143.43 277.293C146.373 279.716 151.307 281.015 158.231 281.015C162.733 281.015 166.455 280.582 169.311 279.63C171.042 279.024 172.6 278.072 174.158 276.773C175.717 275.388 177.015 274.696 178.313 274.696C179.785 274.696 181.083 275.215 182.122 276.341C183.161 277.466 183.767 278.764 183.767 280.236C183.767 282.659 182.122 284.91 178.833 287.074C173.985 290.277 166.801 291.921 157.452 291.921C148.97 291.921 142.478 290.19 137.717 286.641C131.398 281.967 128.195 275.475 128.195 267.338C128.195 259.635 130.792 253.229 135.899 248.122C141.093 243.015 147.758 240.505 156.067 240.505C159.097 240.505 161.867 240.765 164.464 241.37C167.061 241.89 169.398 242.755 171.648 243.881Z" fill="black"/>
<path d="M208.607 221.289V244.487C210.858 243.102 213.195 242.15 215.446 241.457C217.783 240.765 220.12 240.505 222.457 240.505C226.179 240.505 229.555 241.111 232.498 242.41C235.441 243.708 237.865 245.699 239.769 248.382C241.673 251.152 242.625 254.614 242.625 258.769V279.197C245.395 279.197 247.213 279.457 247.992 279.976C249.723 281.102 250.502 282.66 250.502 284.651C250.502 286.209 249.983 287.507 248.858 288.546C247.732 289.585 245.915 290.017 243.318 290.017H230.94C228.343 290.017 226.525 289.498 225.4 288.546C224.275 287.507 223.755 286.209 223.755 284.564C223.755 282.573 224.621 281.015 226.266 279.976C227.131 279.371 228.949 279.111 231.632 279.197V259.548C231.632 256.778 231.026 254.788 229.728 253.662C228.083 252.104 225.573 251.412 222.37 251.412C219.947 251.412 217.869 251.845 215.965 252.797C214.147 253.749 211.637 255.74 208.434 258.856V279.197C211.204 279.197 213.022 279.457 213.801 279.976C215.532 281.102 216.398 282.66 216.398 284.651C216.398 286.209 215.878 287.507 214.753 288.546C213.628 289.585 211.81 290.017 209.127 290.017H196.749C194.152 290.017 192.248 289.498 191.122 288.546C189.997 287.507 189.478 286.209 189.478 284.564C189.478 282.573 190.343 281.015 192.075 279.976C192.94 279.371 194.758 279.111 197.441 279.197V232.196H195.624C193.027 232.196 191.122 231.676 189.997 230.724C188.872 229.685 188.353 228.387 188.353 226.742C188.353 225.184 188.872 223.886 189.997 222.847C191.122 221.808 192.94 221.376 195.624 221.376H208.607V221.289Z" fill="black"/>
<path d="M284.868 252.797V279.198H300.362C302.959 279.198 304.863 279.717 305.989 280.669C307.114 281.708 307.633 283.006 307.633 284.651C307.633 286.209 307.114 287.507 305.989 288.546C304.863 289.585 303.046 290.018 300.362 290.018H267.556C264.959 290.018 263.055 289.498 261.93 288.546C260.805 287.507 260.285 286.209 260.285 284.564C260.285 283.006 260.805 281.708 261.93 280.669C263.055 279.631 264.873 279.198 267.556 279.198H274.048V252.797H268.855C266.258 252.797 264.353 252.278 263.228 251.326C262.103 250.287 261.584 248.988 261.584 247.344C261.584 245.786 262.103 244.487 263.228 243.449C264.353 242.41 266.171 241.977 268.855 241.977H274.048V237.822C274.048 233.062 275.866 229.166 279.415 226.05C282.964 222.934 288.071 221.376 294.822 221.376C297.852 221.376 301.314 221.636 305.21 222.155C309.105 222.674 311.702 223.453 312.827 224.492C313.952 225.444 314.471 226.743 314.471 228.301C314.471 229.945 313.952 231.33 313 232.369C312.048 233.408 310.749 233.927 309.364 233.927C308.672 233.927 307.72 233.841 306.335 233.581C301.834 232.715 297.852 232.282 294.39 232.282C290.754 232.282 288.33 232.802 286.945 233.927C285.561 234.966 284.868 236.351 284.868 237.909V242.064H301.574C304.171 242.064 306.075 242.583 307.2 243.535C308.326 244.487 308.845 245.872 308.845 247.517C308.845 249.075 308.326 250.373 307.2 251.412C306.075 252.451 304.257 252.884 301.574 252.884H284.868V252.797Z" fill="black"/>
<path d="M377.312 271.494H332.734C333.859 274.35 335.85 276.601 338.707 278.332C341.563 280.063 345.458 280.929 350.392 280.929C354.46 280.929 359.741 280.063 366.406 278.332C369.176 277.64 371.08 277.293 372.119 277.293C373.59 277.293 374.802 277.813 375.754 278.851C376.706 279.89 377.226 281.189 377.226 282.747C377.226 284.132 376.706 285.343 375.668 286.382C374.283 287.681 370.82 288.892 365.367 290.104C359.914 291.316 354.634 291.922 349.613 291.922C340.957 291.922 333.946 289.498 328.752 284.564C323.559 279.631 320.962 273.571 320.962 266.473C320.962 258.856 323.818 252.624 329.445 247.863C335.071 243.102 341.563 240.679 348.921 240.679C353.335 240.679 357.404 241.458 361.039 243.016C364.761 244.574 367.444 246.219 369.262 248.036C371.772 250.633 373.936 253.922 375.581 257.731C376.706 260.414 377.312 263.53 377.312 267.079V271.494ZM365.28 260.587C363.636 257.471 361.472 255.134 358.788 253.663C356.105 252.105 352.902 251.326 349.18 251.326C345.545 251.326 342.342 252.105 339.659 253.663C336.975 255.221 334.811 257.558 333.08 260.587H365.28Z" fill="black"/>
<path d="M426.911 254.615C425.18 253.49 423.276 252.71 421.372 252.191C419.467 251.672 417.39 251.412 415.312 251.412C411.071 251.412 407.782 252.105 405.272 253.49C404.146 254.095 403.627 254.701 403.627 255.48C403.627 256.259 404.406 257.125 405.877 257.904C407.003 258.51 409.513 259.029 413.495 259.549C420.679 260.501 425.7 261.54 428.556 262.492C432.278 263.79 435.135 265.781 437.125 268.291C439.116 270.888 440.155 273.571 440.155 276.428C440.155 280.323 438.424 283.526 435.048 286.209C430.114 290.018 423.795 291.835 415.918 291.835C412.802 291.835 409.859 291.576 407.176 291.056C404.492 290.537 402.069 289.671 399.818 288.633C399.299 289.066 398.693 289.412 398.087 289.671C397.481 289.931 396.875 290.018 396.269 290.018C394.538 290.018 393.24 289.498 392.201 288.373C391.162 287.248 390.729 285.43 390.729 282.747V279.111C390.729 276.514 391.249 274.61 392.201 273.485C393.24 272.36 394.538 271.84 396.183 271.84C397.481 271.84 398.606 272.186 399.472 272.965C400.338 273.658 401.03 274.956 401.549 276.687C403.194 278.072 405.185 279.198 407.522 279.89C409.859 280.583 412.543 281.015 415.572 281.015C420.593 281.015 424.401 280.236 427.171 278.678C428.469 277.899 429.162 277.12 429.162 276.255C429.162 274.87 428.21 273.658 426.392 272.792C424.488 271.84 420.679 271.061 414.793 270.455C406.051 269.503 400.251 267.772 397.308 265.175C394.365 262.578 392.893 259.376 392.893 255.654C392.893 251.758 394.538 248.556 397.827 245.959C402.242 242.41 408.128 240.679 415.312 240.679C417.823 240.679 420.246 240.938 422.583 241.371C424.921 241.891 427.085 242.583 429.249 243.535C429.941 243.016 430.547 242.67 431.153 242.41C431.759 242.15 432.278 242.064 432.797 242.064C434.269 242.064 435.481 242.583 436.52 243.708C437.472 244.834 437.991 246.651 437.991 249.335V252.018C437.991 254.355 437.731 256 437.125 256.865C436 258.51 434.442 259.289 432.538 259.289C431.239 259.289 430.114 258.856 429.075 258.077C427.864 257.038 427.171 256 426.911 254.615Z" fill="black"/>
<path d="M477.635 252.797V274.523C477.635 276.86 478.155 278.418 479.107 279.111C480.578 280.236 483.262 280.842 487.07 280.842C492.61 280.842 497.717 279.63 502.478 277.293C504.296 276.341 505.681 275.908 506.719 275.908C508.104 275.908 509.403 276.427 510.441 277.466C511.48 278.505 511.999 279.803 511.999 281.361C511.999 282.746 511.394 283.958 510.268 284.997C508.537 286.641 505.161 288.2 500.054 289.584C494.947 290.969 490.619 291.662 487.157 291.662C480.405 291.662 475.385 290.19 472.009 287.247C468.633 284.304 466.988 280.755 466.988 276.514V252.797H463.093C460.497 252.797 458.592 252.277 457.467 251.325C456.342 250.286 455.822 248.988 455.822 247.343C455.822 245.785 456.342 244.487 457.467 243.448C458.592 242.409 460.41 241.977 463.093 241.977H466.988V232.109C466.988 229.512 467.508 227.608 468.46 226.483C469.499 225.357 470.797 224.838 472.442 224.838C474 224.838 475.298 225.357 476.337 226.483C477.376 227.608 477.808 229.426 477.808 232.109V241.89H497.89C500.487 241.89 502.391 242.409 503.517 243.362C504.642 244.4 505.161 245.699 505.161 247.343C505.161 248.901 504.642 250.2 503.517 251.239C502.391 252.277 500.574 252.71 497.89 252.71H477.635V252.797Z" fill="black"/>
</svg>
