<svg width="762" height="473" viewBox="0 0 762 473" fill="none" xmlns="http://www.w3.org/2000/svg">
  <path d="M320.759 101.051L250.589 201.301V315.801L320.759 215.551V101.051Z" fill="#B18AC0"/>
  <path d="M390.929 0.810547L470.816 114.924V229.424L390.929 115.311V0.810547Z" fill="#636CBA"/>
  <path d="M380.845 100.903L458.094 211.267V304.791L380.845 415.12V100.903Z" fill="#B18AC0"/>
  <path d="M470.806 114.915L531.268 201.296V315.796L470.806 229.415V114.915Z" fill="#3C5DB7"/>
  <path d="M220.951 157.779L310.93 286.275L270.829 343.561L220.951 272.279V157.779Z" fill="#636CBA"/>
  <path d="M390.929 0.810547L320.759 101.061V215.561L390.929 115.311V0.810547Z" fill="#FFA8C6"/>
  <path d="M390.929 401.074V115.301L290.929 258.199L390.929 401.074Z" fill="#D899C3"/>
  <path d="M310.763 286.502L440.864 472.533H360.794L310.763 401.002V286.502Z" fill="#3C5DB7"/>
  <path d="M220.951 271.253L80.6192 472.776H180.389L220.951 414.917V271.253Z" fill="#B18AC0"/>
  <path d="M170.958 229.207L0.485992 472.78H80.611L170.958 343.707V229.207Z" fill="#D899C3"/>
  <path d="M220.946 414.846V272.271L270.836 343.564L220.946 414.846Z" fill="#D899C3"/>
  <path d="M430.751 315.244V172.197L480.807 243.726L430.751 315.244Z" fill="#8A7BBD"/>
  <path d="M380.679 472.752L310.763 372.264V472.752H380.679Z" fill="#B18AC0"/>
  <path d="M260.702 472.501L310.763 400.99V472.501H260.702Z" fill="#D899C3"/>
  <path d="M180.379 472.775L230.94 400.535V472.775H180.379Z" fill="#8A7BBD"/>
  <path d="M470.73 258.03L320.436 472.78H400.561L470.73 372.53V258.03Z" fill="#D899C3"/>
  <path d="M540.9 157.779L470.73 258.029V372.529L540.9 272.279V157.779Z" fill="#FFA8C6"/>
  <path d="M540.898 472.771L540.898 272.271L681.242 472.771H540.898Z" fill="#8A7BBD"/>
  <path d="M540.898 472.771L540.898 272.271L400.554 472.771H540.898Z" fill="#B18AC0"/>
  <path d="M590.909 372.287V343.732L550.91 400.803L550.91 429.518L590.909 372.287Z" fill="white"/>
  <path d="M391.039 299.822C434.856 299.822 471.167 335.728 471.167 379.544C471.167 424.984 435.261 459.267 391.039 459.267C346.817 459.267 310.911 424.984 310.911 379.544C310.911 335.728 347.222 299.822 391.039 299.822ZM391.039 441.415C424.104 441.415 452.098 414.436 452.098 379.544C452.098 345.87 426.944 317.674 391.039 317.674C355.134 317.674 329.98 345.87 329.98 379.544C329.98 414.436 357.974 441.415 391.039 441.415Z" fill="white"/>
  <path d="M230.944 315.169V472.828H210.95V315.169L170.948 372.291V343.724L220.946 272.313L270.931 343.722V372.289L230.944 315.169Z" fill="white"/>
  <path d="M590.917 229.223L761.269 472.779H661.436L590.917 372.303V229.223Z" fill="#3C5DB7"/>
  <path d="M220.951 157.779L170.948 229.214V343.714L220.951 272.279V157.779Z" fill="#FFA8C6"/>
  <path d="M500.638 472.78L530.911 429.519V472.78H500.638Z" fill="#8A7BBD"/>
  <path d="M230.767 400.769L310.762 286.502V401.002L260.745 472.46H230.767V400.769Z" fill="#FFA8C6"/>
  <path d="M550.923 315.169V472.776H530.929V286.591L540.925 272.313L600.698 357.78L590.909 372.289L550.923 315.169Z" fill="white"/>
  <path d="M540.9 157.779L600.704 243.283V357.783L540.9 272.279V157.779Z" fill="#636CBA"/>
</svg>
